<svg width="50" height="50" viewBox="0 0 50 50" fill="none" xmlns="http://www.w3.org/2000/svg">
<path d="M9.34839 32.0363V27.6082C9.34839 26.4758 10.2664 25.5579 11.3987 25.5579H23.1792C24.3115 25.5579 25.2294 26.4758 25.2294 27.6082M25.2294 27.6082V37.2665M25.2294 27.6082C25.2294 26.4758 26.1474 25.5579 27.2797 25.5579H39.0602C40.1925 25.5579 41.1105 26.4758 41.1105 27.6082V32.0363" stroke="#110F0F" stroke-width="2" stroke-miterlimit="10" stroke-linecap="round" stroke-linejoin="round"/>
<path d="M37.2594 40.7777V33.9009C37.2594 32.9119 38.0611 32.1101 39.0501 32.1101H41.3419C42.331 32.1101 43.1327 32.9119 43.1327 33.9009V45.4689C43.1327 46.1548 42.5767 46.7109 41.8907 46.7109H8.14189C7.45596 46.7109 6.8999 46.1548 6.8999 45.4689V33.9009C6.8999 32.9119 7.70166 32.1101 8.69072 32.1101H10.9825C11.9716 32.1101 12.7733 32.9119 12.7733 33.9009V40.7777M37.2594 40.7777H12.7733M37.2594 40.7777V42.2664M12.7733 40.7777V42.2664" stroke="#110F0F" stroke-width="2" stroke-miterlimit="10" stroke-linecap="round" stroke-linejoin="round"/>
<path d="M45.8954 34.7522C47.0136 32.073 47.6321 29.133 47.6321 26.0483C47.6321 13.558 37.5067 3.43262 25.0164 3.43262C12.526 3.43262 2.40063 13.558 2.40063 26.0483C2.40063 29.133 3.01909 32.073 4.13735 34.7522M12.9687 37.4227H37.0641" stroke="#110F0F" stroke-width="2" stroke-miterlimit="10" stroke-linecap="round" stroke-linejoin="round"/>
</svg>
