<svg width="22" height="22" viewBox="0 0 22 22" fill="none" xmlns="http://www.w3.org/2000/svg">
<path d="M11.0686 16.1152C8.28026 16.1152 6.01147 13.8464 6.01147 11.0581C6.01147 8.26977 8.28026 6.00098 11.0686 6.00098C13.8569 6.00098 16.1257 8.26977 16.1257 11.0581C16.1257 13.847 13.8569 16.1152 11.0686 16.1152ZM11.0686 8.10273C9.43914 8.10273 8.11323 9.42864 8.11323 11.0581C8.11323 12.6875 9.43914 14.0134 11.0686 14.0134C12.698 14.0134 14.0239 12.6875 14.0239 11.0581C14.0239 9.42864 12.698 8.10273 11.0686 8.10273Z" fill="url(#paint0_linear_4486_34)"/>
<path d="M16.0635 7.19734C16.7207 7.19734 17.2535 6.66457 17.2535 6.00736C17.2535 5.35015 16.7207 4.81738 16.0635 4.81738C15.4063 4.81738 14.8735 5.35015 14.8735 6.00736C14.8735 6.66457 15.4063 7.19734 16.0635 7.19734Z" fill="url(#paint1_linear_4486_34)"/>
<path d="M15.2364 20.9006H6.76372C3.64075 20.9006 1.1001 18.3599 1.1001 15.237V6.76372C1.1001 3.64075 3.64075 1.1001 6.76372 1.1001H15.237C18.3599 1.1001 20.9006 3.64075 20.9006 6.76372V15.237C20.9006 18.3594 18.3594 20.9006 15.2364 20.9006ZM6.76372 3.20128C4.79962 3.20128 3.20185 4.79905 3.20185 6.76314V15.2364C3.20185 17.2005 4.79962 18.7983 6.76372 18.7983H15.237C17.2011 18.7983 18.7988 17.2005 18.7988 15.2364V6.76372C18.7988 4.79962 17.2011 3.20185 15.237 3.20185H6.76372V3.20128Z" fill="url(#paint2_linear_4486_34)"/>
<defs>
<linearGradient id="paint0_linear_4486_34" x1="2.53042" y1="19.5964" x2="18.1073" y2="4.0196" gradientUnits="userSpaceOnUse">
<stop stop-color="#FEE411"/>
<stop offset="0.052" stop-color="#FEDB16"/>
<stop offset="0.138" stop-color="#FEC125"/>
<stop offset="0.248" stop-color="#FE983D"/>
<stop offset="0.376" stop-color="#FE5F5E"/>
<stop offset="0.5" stop-color="#FE2181"/>
<stop offset="1" stop-color="#9000DC"/>
</linearGradient>
<linearGradient id="paint1_linear_4486_34" x1="2.50238" y1="19.5684" x2="18.0792" y2="3.99159" gradientUnits="userSpaceOnUse">
<stop stop-color="#FEE411"/>
<stop offset="0.052" stop-color="#FEDB16"/>
<stop offset="0.138" stop-color="#FEC125"/>
<stop offset="0.248" stop-color="#FE983D"/>
<stop offset="0.376" stop-color="#FE5F5E"/>
<stop offset="0.5" stop-color="#FE2181"/>
<stop offset="1" stop-color="#9000DC"/>
</linearGradient>
<linearGradient id="paint2_linear_4486_34" x1="2.46696" y1="19.5332" x2="18.0438" y2="3.95627" gradientUnits="userSpaceOnUse">
<stop stop-color="#FEE411"/>
<stop offset="0.052" stop-color="#FEDB16"/>
<stop offset="0.138" stop-color="#FEC125"/>
<stop offset="0.248" stop-color="#FE983D"/>
<stop offset="0.376" stop-color="#FE5F5E"/>
<stop offset="0.5" stop-color="#FE2181"/>
<stop offset="1" stop-color="#9000DC"/>
</linearGradient>
</defs>
</svg>
