<svg width="50" height="50" viewBox="0 0 50 50" fill="none" xmlns="http://www.w3.org/2000/svg">
<mask id="mask0_4100_5107" style="mask-type:alpha" maskUnits="userSpaceOnUse" x="0" y="0" width="50" height="50">
<rect width="50" height="50" fill="#D9D9D9"/>
</mask>
<g mask="url(#mask0_4100_5107)">
<circle cx="25" cy="25" r="24.25" stroke="#1781FE" stroke-width="1.5"/>
<path fill-rule="evenodd" clip-rule="evenodd" d="M24.5709 8.12305C24.6996 8.04264 24.8482 8 24.9999 8C25.1517 8 25.3003 8.04264 25.429 8.12305L28.8776 10.2764C30.7726 11.4611 32.903 12.2185 35.1206 12.4961L38.0527 12.8636C38.2485 12.8881 38.4285 12.9832 38.5591 13.1311C38.6897 13.2789 38.7618 13.4694 38.7619 13.6667V24.1209C38.7619 27.0042 38.0285 29.8401 36.6308 32.3619C35.2331 34.8838 33.2169 37.0087 30.7718 38.5369L25.429 41.877C25.3003 41.9574 25.1517 42 24.9999 42C24.8482 42 24.6996 41.9574 24.5709 41.877L19.228 38.5369C16.783 37.0087 14.7668 34.8838 13.3691 32.3619C11.9714 29.8401 11.238 27.0042 11.238 24.1209V13.6667C11.2381 13.4694 11.3102 13.2789 11.4408 13.1311C11.5713 12.9832 11.7514 12.8881 11.9472 12.8636L14.8793 12.4961C17.0973 12.2193 19.2283 11.4623 21.1239 10.278L24.5709 8.12305ZM24.9999 9.76476L21.982 11.651C19.8869 12.9604 17.5316 13.7974 15.08 14.1038L12.8571 14.379V24.1209C12.8574 26.7293 13.521 29.2948 14.7856 31.5762C16.0502 33.8575 17.8742 35.7798 20.0861 37.1623L24.9999 40.2352L29.9138 37.1639C32.1259 35.7813 33.9501 33.8588 35.2147 31.5771C36.4793 29.2954 37.1428 26.7296 37.1428 24.1209V14.3823L34.9199 14.1054C32.4683 13.7991 30.1129 12.962 28.0178 11.6526L24.9999 9.76476Z" fill="#1781FE"/>
<path fill-rule="evenodd" clip-rule="evenodd" d="M31.2398 20.716L24.7636 27.1922C24.6118 27.3439 24.4059 27.4292 24.1913 27.4292C23.9766 27.4292 23.7708 27.3439 23.619 27.1922L20.3809 23.9541L21.5255 22.8094L24.1905 25.4744L30.0951 19.5697L31.2398 20.716Z" fill="#1781FE"/>
</g>
</svg>
