<svg width="50" height="50" viewBox="0 0 50 50" fill="none" xmlns="http://www.w3.org/2000/svg">
<mask id="mask0_4096_3528" style="mask-type:alpha" maskUnits="userSpaceOnUse" x="0" y="0" width="50" height="50">
<rect width="50" height="50" fill="#D9D9D9"/>
</mask>
<g mask="url(#mask0_4096_3528)">
<path d="M25 49.7506C38.8071 49.7506 50 38.8374 50 25.3753C50 11.9132 38.8071 1 25 1C11.1929 1 0 11.9132 0 25.3753C0 38.8374 11.1929 49.7506 25 49.7506Z" fill="#34E0A1"/>
<path d="M40.441 20.6197L43.4578 17.4196H36.7678C33.4187 15.189 29.374 13.8899 24.9997 13.8899C20.6309 13.8899 16.5975 15.1918 13.2538 17.4196H6.54716L9.56392 20.6197C7.71479 22.2647 6.55557 24.6342 6.55557 27.2651C6.55557 32.23 10.6841 36.2553 15.7763 36.2553C18.1953 36.2553 20.3992 35.3457 22.0444 33.8586L24.9997 36.9961L27.955 33.8614C29.6003 35.3484 31.8014 36.2553 34.2204 36.2553C39.3126 36.2553 43.4466 32.23 43.4466 27.2651C43.4494 24.6314 42.2902 22.262 40.441 20.6197ZM15.779 33.3493C12.3321 33.3493 9.53883 30.6259 9.53883 27.2651C9.53883 23.9042 12.3321 21.1807 15.779 21.1807C19.2259 21.1807 22.0192 23.9042 22.0192 27.2651C22.0192 30.6259 19.2259 33.3493 15.779 33.3493ZM25.0025 27.088C25.0025 23.0844 22.0165 19.6474 18.0751 18.1794C20.2064 17.3106 22.5444 16.8285 24.9997 16.8285C27.455 16.8285 29.7957 17.3106 31.927 18.1794C27.9885 19.6501 25.0025 23.0845 25.0025 27.088ZM34.2232 33.3493C30.7762 33.3493 27.9829 30.6259 27.9829 27.2651C27.9829 23.9042 30.7762 21.1807 34.2232 21.1807C37.6702 21.1807 40.4634 23.9042 40.4634 27.2651C40.4634 30.6259 37.6701 33.3493 34.2232 33.3493ZM34.2232 24.0731C32.4159 24.0731 30.9522 25.5002 30.9522 27.2623C30.9522 29.0244 32.4159 30.4515 34.2232 30.4515C36.0304 30.4515 37.4941 29.0244 37.4941 27.2623C37.4941 25.5029 36.0304 24.0731 34.2232 24.0731ZM19.05 27.2651C19.05 29.0271 17.5862 30.4543 15.779 30.4543C13.9718 30.4543 12.5081 29.0271 12.5081 27.2651C12.5081 25.5029 13.9718 24.0758 15.779 24.0758C17.5862 24.0731 19.05 25.5029 19.05 27.2651Z" fill="#110F0F"/>
</g>
</svg>
