<svg width="50" height="50" viewBox="0 0 50 50" fill="none" xmlns="http://www.w3.org/2000/svg">
<mask id="mask0_4100_5097" style="mask-type:alpha" maskUnits="userSpaceOnUse" x="0" y="0" width="50" height="50">
<rect width="50" height="50" fill="#D9D9D9"/>
</mask>
<g mask="url(#mask0_4100_5097)">
<path d="M42.6777 7.32227C37.9559 2.60049 31.6777 0 25 0C18.3223 0 12.0441 2.60049 7.32227 7.32227C2.60039 12.044 0 18.3223 0 25C0 31.6777 2.60049 37.9559 7.32227 42.6777C12.044 47.3996 18.3223 50 25 50C31.6777 50 37.9559 47.3995 42.6777 42.6777C47.3996 37.956 50 31.6777 50 25C50 18.3223 47.3995 12.0441 42.6777 7.32227ZM25 48.5352C12.0227 48.5352 1.46484 37.9773 1.46484 25C1.46484 12.0227 12.0227 1.46484 25 1.46484C37.9773 1.46484 48.5352 12.0227 48.5352 25C48.5352 37.9773 37.9773 48.5352 25 48.5352Z" fill="#FF0000"/>
<path d="M40.5161 13.7913C40.454 13.7054 40.374 13.634 40.2816 13.5821C40.1892 13.5302 40.0866 13.4989 39.9809 13.4905C39.8752 13.482 39.769 13.4966 39.6695 13.5333C39.5701 13.5699 39.4797 13.6277 39.4048 13.7026L13.7026 39.4047C13.6277 39.4797 13.57 39.57 13.5333 39.6695C13.4967 39.7689 13.4821 39.8752 13.4906 39.9808C13.499 40.0865 13.5302 40.189 13.5822 40.2814C13.6341 40.3738 13.7054 40.4539 13.7913 40.516C17.0613 42.881 20.9378 44.1311 25.0014 44.1313C30.1193 44.1313 34.9251 42.1437 38.5344 38.5344C41.767 35.3017 43.7355 31.0075 44.0774 26.4429C44.4155 21.9274 43.1508 17.4344 40.5161 13.7913ZM37.4985 37.4986C34.1658 40.8313 29.7276 42.6667 25.0015 42.6665C21.5388 42.6663 18.224 41.6841 15.3611 39.8178L39.818 15.3608C44.3836 22.3507 43.4661 31.5311 37.4985 37.4986ZM36.5095 10.019C36.501 9.91339 36.4697 9.81083 36.4178 9.71843C36.3658 9.62604 36.2945 9.54602 36.2086 9.48388C32.7748 7.00039 28.536 5.72207 24.2704 5.88291C19.983 6.04511 15.8332 7.66074 12.5854 10.4322C12.4399 10.5589 12.3502 10.738 12.336 10.9305C12.3217 11.1229 12.3839 11.3132 12.5092 11.46C12.6345 11.6069 12.8126 11.6983 13.0049 11.7145C13.1973 11.7307 13.3882 11.6703 13.5362 11.5465C19.5355 6.42715 28.0944 5.91113 34.639 10.1819L10.182 34.639C5.91103 28.0943 6.42714 19.5353 11.5465 13.5363C11.6703 13.3883 11.7307 13.1974 11.7145 13.005C11.6983 12.8127 11.6068 12.6346 11.46 12.5093C11.3132 12.384 11.1229 12.3218 10.9305 12.3361C10.738 12.3503 10.5589 12.44 10.4322 12.5855C7.66074 15.8332 6.04511 19.983 5.8829 24.2704C5.72167 28.5351 7.00048 32.7748 9.48398 36.2086C9.5461 36.2945 9.62613 36.3659 9.71854 36.4178C9.81096 36.4698 9.91354 36.5011 10.0192 36.5095C10.1249 36.5179 10.2311 36.5033 10.3306 36.4667C10.4301 36.43 10.5204 36.3722 10.5954 36.2973L36.2974 10.5952C36.3723 10.5202 36.43 10.4299 36.4667 10.3304C36.5033 10.2309 36.5179 10.1247 36.5095 10.019Z" fill="#FF0000"/>
</g>
</svg>
