<svg width="104" height="18" viewBox="0 0 104 18" fill="none" xmlns="http://www.w3.org/2000/svg">
<path d="M103.244 13.5015C102.827 13.5015 102.488 13.8335 102.488 14.2422C102.488 14.6508 102.827 14.9828 103.244 14.9828C103.661 14.9828 104 14.6508 104 14.2422C104 13.8335 103.661 13.5015 103.244 13.5015ZM103.244 14.8653C102.892 14.8653 102.608 14.585 102.608 14.2422C102.608 13.8977 102.894 13.619 103.244 13.619C103.596 13.619 103.882 13.8993 103.882 14.2422C103.882 14.585 103.596 14.8653 103.244 14.8653ZM103.49 14.1153C103.49 13.9807 103.393 13.9008 103.249 13.9008H103.007V14.5756H103.126V14.3314H103.255L103.38 14.5756H103.508L103.37 14.3064C103.444 14.2735 103.49 14.2077 103.49 14.1153ZM103.244 14.2265H103.127V14.0026H103.244C103.324 14.0026 103.372 14.0417 103.372 14.1138C103.372 14.1874 103.322 14.2265 103.244 14.2265ZM12.1604 6.00623V4.215H9.35723V14.8716H12.1604V8.48174C12.1604 7.32463 12.9179 6.75623 14.099 6.75623H15.6332V4.21504H14.3227C13.2967 4.215 12.4049 4.73953 12.1604 6.00623ZM18.259 0C17.3001 0 16.5649 0.742182 16.5649 1.68163C16.5649 2.59917 17.3001 3.34135 18.259 3.34135C19.2178 3.34135 19.953 2.59917 19.953 1.68163C19.953 0.742143 19.2178 0 18.259 0ZM16.8606 14.8716H19.6574V4.215H16.8606V14.8716ZM32.9795 9.54328C32.9795 12.5855 30.4625 15.0517 27.3572 15.0517C26.1042 15.0517 24.968 14.6493 24.057 13.9697V18H21.2602V4.215H24.057V5.11686C24.968 4.43734 26.1042 4.03494 27.3572 4.03494C30.4625 4.03494 32.9795 6.50102 32.9795 9.54328ZM30.1652 9.54328C30.1652 7.89142 28.7972 6.5511 27.1111 6.5511C25.4251 6.5511 24.057 7.89142 24.057 9.54328C24.057 11.1952 25.4251 12.5355 27.1111 12.5355C28.7972 12.5355 30.1652 11.1967 30.1652 9.54328ZM81.589 8.60854L79.9573 8.17012C78.8834 7.8961 78.4663 7.57356 78.4663 7.01773C78.4663 6.47596 79.0544 6.09705 79.895 6.09705C80.6957 6.09705 81.3238 6.61062 81.3238 7.26822V7.32927H83.9016V7.26822C83.9016 5.33448 82.2923 4.0349 79.895 4.0349C77.5218 4.0349 75.7974 5.33291 75.7974 7.12257C75.7974 8.51454 76.7386 9.56359 78.3815 9.99886L79.9446 10.4169C81.132 10.7395 81.5731 11.0965 81.5731 11.7369C81.5731 12.4118 80.9354 12.8658 79.9861 12.8658C78.9968 12.8658 78.3304 12.252 78.3304 11.3408V11.2797H75.5944V11.3408C75.5944 13.5266 77.3907 15.0547 79.9638 15.0547C82.4425 15.0547 84.242 13.5626 84.242 11.5083C84.242 10.4999 83.7817 9.18162 81.589 8.60854ZM42.9009 4.215H45.6977V14.8716H42.9009V13.9697C41.99 14.6492 40.8536 15.0516 39.6007 15.0516C36.4955 15.0516 33.9784 12.5855 33.9784 9.54324C33.9784 6.50094 36.4955 4.0349 39.6007 4.0349C40.8536 4.0349 41.99 4.4373 42.9009 5.11682V4.215ZM42.9009 9.54328C42.9009 7.88985 41.5329 6.5511 39.8468 6.5511C38.1607 6.5511 36.7928 7.89142 36.7928 9.54328C36.7928 11.1952 38.1607 12.5355 39.8468 12.5355C41.5344 12.5355 42.9009 11.1967 42.9009 9.54328ZM55.7964 0.422746H58.5932V14.8731H55.7964V13.9712C54.8855 14.6508 53.7492 15.0532 52.4963 15.0532C49.391 15.0532 46.8739 12.5871 46.8739 9.54481C46.8739 6.50251 49.391 4.03647 52.4963 4.03647C53.7492 4.03647 54.8855 4.43887 55.7964 5.1184V0.422746ZM55.7964 9.54328C55.7964 7.89142 54.4284 6.5511 52.7423 6.5511C51.0563 6.5511 49.6883 7.89142 49.6883 9.54328C49.6883 11.1952 51.0547 12.5355 52.7423 12.5355C54.4284 12.5355 55.7964 11.1967 55.7964 9.54328ZM71.5782 14.8716H74.3749V4.215H71.5782V14.8716ZM72.9766 0C72.0177 0 71.2825 0.742182 71.2825 1.68163C71.2825 2.59917 72.0177 3.34135 72.9766 3.34135C73.9355 3.34135 74.6706 2.59917 74.6706 1.68163C74.6706 0.742143 73.9355 0 72.9766 0ZM96.3304 9.54328C96.3304 12.5855 93.8133 15.0517 90.7081 15.0517C87.6029 15.0517 85.0858 12.5856 85.0858 9.54328C85.0858 6.50098 87.6029 4.03494 90.7081 4.03494C93.8133 4.03494 96.3304 6.50102 96.3304 9.54328ZM93.7622 9.54328C93.7622 7.89142 92.3942 6.5511 90.7081 6.5511C89.022 6.5511 87.6541 7.89142 87.6541 9.54328C87.6541 11.1952 89.0205 12.5355 90.7081 12.5355C92.3941 12.5355 93.7622 11.1967 93.7622 9.54328ZM10.7284 0.422746H0V2.86691H3.97144V14.8716H6.75862V2.86691H10.7301V0.422746H10.7284ZM64.9842 11.953L62.4959 4.21504H59.5585L63.2902 14.8716H66.6559L70.4099 4.21504H67.4725L64.9842 11.953ZM100.428 6.00623V4.215H97.6249V14.8716H100.428V8.48174C100.428 7.32463 101.186 6.75623 102.367 6.75623H103.901V4.21504H102.59C101.564 4.215 100.674 4.73953 100.428 6.00623Z" fill="#110F0F"/>
</svg>
